<svg width="48" height="48" viewBox="0 0 48 48" fill="none" xmlns="http://www.w3.org/2000/svg">
<mask id="mask0_28_18" style="mask-type:alpha" maskUnits="userSpaceOnUse" x="7" y="4" width="34" height="40">
<path d="M40.0656 25.3731L36.5892 33.5339L33.1128 41.6947C32.753 42.5394 31.8694 43.2307 31.1409 43.2375L24.1021 43.3038L17.0633 43.3699C16.3348 43.3768 15.444 42.7022 15.0753 41.8644L11.5129 33.7698L7.95052 25.6752C7.58182 24.8375 7.57456 23.4715 7.93439 22.6269L11.4108 14.4661L14.8872 6.30529C15.247 5.46065 16.1306 4.76937 16.8591 4.76249L23.8979 4.69625L30.9367 4.63009C31.6652 4.62321 32.556 5.29785 32.9247 6.13561L36.4871 14.2303L40.0495 22.3248C40.4182 23.1626 40.4254 24.5285 40.0656 25.3731Z" fill="white"/>
</mask>
<g mask="url(#mask0_28_18)">
<path d="M40.0656 25.3731L36.5892 33.5339L33.1128 41.6947C32.753 42.5394 31.8694 43.2307 31.1409 43.2375L24.1021 43.3038L17.0633 43.3699C16.3348 43.3768 15.444 42.7022 15.0753 41.8644L11.5129 33.7698L7.95052 25.6752C7.58182 24.8375 7.57456 23.4715 7.93439 22.6269L11.4108 14.4661L14.8872 6.30529C15.247 5.46065 16.1306 4.76937 16.8591 4.76249L23.8979 4.69625L30.9367 4.63009C31.6652 4.62321 32.556 5.29785 32.9247 6.13561L36.4871 14.2303L40.0495 22.3248C40.4182 23.1626 40.4254 24.5285 40.0656 25.3731Z" stroke="#64FFDA" stroke-width="4" stroke-miterlimit="3" stroke-linecap="square"/>
<path d="M13.7595 16.7028L27.1357 16.6379L26.1208 19.0738H14.7531L13.7595 16.7028Z" fill="#64FFDA"/>
<path d="M15.4298 20.5173H25.5118L24.4968 22.9532H18.407L21.5872 29.7197L20.5318 32.1556L15.4298 20.5173Z" fill="#64FFDA"/>
<path d="M22.1286 36.2154L30.8493 16.6149L28.7597 16.6379L21.1813 33.7795L22.1286 36.2154Z" fill="#64FFDA"/>
<path fill-rule="evenodd" clip-rule="evenodd" d="M28.9041 28.8554L23.9555 40.1851L22.8052 37.4785L28.6908 24.355L32.1505 16.6405L34.2405 16.6379L29.8544 26.6797L29.8889 26.5954L29.0755 26.7449L28.2622 26.8944L28.5962 27.9149L28.9041 28.8554Z" fill="#64FFDA"/>
</g>
</svg>
